<svg width="25" height="25" viewBox="0 0 25 25" fill="none" xmlns="http://www.w3.org/2000/svg">
<path d="M18.2776 18.9283C20.481 18.552 21.9622 16.4607 21.5859 14.2573C21.2095 12.0539 19.1183 10.5728 16.9149 10.9491C14.7115 11.3254 13.2303 13.4167 13.6066 15.6201C13.983 17.8235 16.0742 19.3046 18.2776 18.9283Z" stroke="white" stroke-width="1.55685" stroke-miterlimit="10" stroke-linecap="round"/>
<path d="M23.3391 21.4034C23.6641 21.6848 24.1557 21.6495 24.4371 21.3245C24.7185 20.9995 24.6832 20.5079 24.3582 20.2265L23.3391 21.4034ZM19.5144 18.0916L23.3391 21.4034L24.3582 20.2265L20.5335 16.9147L19.5144 18.0916Z" fill="white"/>
<path d="M9.69388 11.1555V2.38477M9.69388 2.38477H3.69287L1.3848 7.00092V7.92415M9.69388 2.38477H15.6949L18.003 7.00092V7.92415M1.3848 7.92415H18.003M1.3848 7.92415V22.6959H18.003V7.92415" stroke="white" stroke-width="1.55685"/>
<path d="M4.61612 13.9252H7.38581V16.6949H4.61612V13.9252Z" fill="white"/>
<path d="M4.61612 18.5414H10.1555V19.4646H4.61612V18.5414Z" fill="white"/>
</svg>
