<svg width="124" height="47" viewBox="0 0 124 47" fill="none" xmlns="http://www.w3.org/2000/svg">
<path fill-rule="evenodd" clip-rule="evenodd" d="M100.811 20.8153C101.502 21.0646 102.256 21.1203 102.99 21.0513C103.29 21.0222 103.564 21.2184 103.607 21.4995C103.647 21.7435 103.699 21.9875 103.761 22.2289C103.993 23.0723 104.387 23.8573 104.941 24.5575C105.566 25.3504 106.415 25.926 107.457 26.1408C107.76 26.2044 108.071 26.2363 108.383 26.2336C108.58 26.2336 108.751 26.3185 108.86 26.4749C108.968 26.6288 108.982 26.8065 108.902 26.9735C108.24 28.3633 107.654 29.8352 107.374 31.331C106.406 36.5239 110.819 39.9478 115.988 37.3752C116.822 36.9588 117.245 36.1208 117.051 35.2588C116.985 34.9538 116.845 34.67 116.634 34.426C116.542 34.32 116.502 34.198 116.514 34.0601C116.631 32.5881 117.285 30.6468 117.756 29.2279C118.296 27.5995 118.893 25.9127 119.567 24.3241C121.275 20.2928 123.848 14.4608 123.997 10.1564C124.128 6.2418 119.83 4.77517 116.471 6.50171C115.82 6.83588 115.406 7.45913 115.386 8.15134C115.38 8.37677 115.226 8.56773 114.997 8.63668C114.763 8.70829 114.52 8.63933 114.372 8.46164C114.14 8.18582 113.869 7.93917 113.569 7.72435C111.918 6.54415 109.751 6.65819 107.986 7.56257C107.629 7.74822 107.331 8.01608 107.14 8.3529C107 8.59425 106.689 8.69768 106.415 8.58894C105.766 8.33169 105.035 8.31047 104.344 8.42451C102.979 8.64994 101.779 9.16711 100.702 9.97866C100.463 10.159 100.106 10.1272 99.9084 9.9044C99.6771 9.64715 99.4115 9.42171 99.1144 9.23076C97.3779 8.11686 95.2787 8.64199 93.6364 9.63389C93.3822 9.78771 93.1652 9.97866 93.0052 10.2147C92.8681 10.411 92.6225 10.5011 92.3769 10.4401C91.8342 10.3049 91.2544 10.3075 90.7003 10.4004C89.3351 10.6258 88.1356 11.1456 87.0588 11.9545C86.8189 12.1348 86.4619 12.103 86.2648 11.8802C86.0334 11.623 85.7678 11.3976 85.4708 11.2066C83.7343 10.0927 81.635 10.6178 79.9928 11.6097C79.4815 11.9174 79.1731 12.347 79.0702 12.904C79.0331 13.0949 78.9017 13.2408 78.7047 13.3071C78.5104 13.3734 78.3077 13.3416 78.1477 13.2169C77.0196 12.3417 75.4373 12.0792 74.0149 12.3258C73.8607 12.3523 73.7093 12.3868 73.5579 12.4239C73.3523 12.4743 73.1495 12.4213 73.0039 12.2781C72.8553 12.1375 72.8068 11.9465 72.8696 11.7582C73.2238 10.6947 73.3209 9.59145 73.0838 8.49612C72.2441 4.60809 68.4883 3.88671 64.8554 4.93695C60.9968 6.05085 57.638 8.92842 55.1817 11.8378C55.0246 12.0235 54.7647 12.0898 54.5277 12.0049C54.2906 11.9174 54.1478 11.7052 54.1706 11.4692C54.3848 9.04246 53.3966 6.85975 51.7315 5.02182C50.2863 3.42524 46.5363 0.680275 44.2285 0.606015C43.4002 0.579494 42.6834 0.966705 42.2978 1.6483C40.7212 4.42774 40.0043 7.55461 41.6866 10.4428C41.7808 10.6046 41.7808 10.7823 41.6866 10.944C41.5923 11.1058 41.4295 11.2039 41.2324 11.2172C40.9126 11.2411 40.6012 11.3127 40.3014 11.4214C39.8158 11.6044 39.4217 11.9253 39.196 12.3682C39.1275 12.5008 39.0161 12.591 38.8676 12.6388C38.4563 12.7687 37.8679 12.8483 37.4367 12.8297C37.2282 12.8218 37.0568 12.721 36.9597 12.5512C36.8626 12.3815 36.8683 12.1905 36.9797 12.0261C37.311 11.5328 37.6023 11.0183 37.8679 10.4905C38.879 8.46429 39.0704 5.0563 36.9026 3.58967C35.9172 2.92133 34.7062 2.83646 33.5581 3.15207C32.7755 3.36689 32.2043 3.96097 32.0786 4.70887C32.0643 4.807 32.0243 4.88656 31.9586 4.96082C31.6673 5.29499 31.3046 5.58938 30.9704 5.88907C30.7905 6.05085 30.6134 6.21528 30.4392 6.38237C30.2764 6.54149 30.0393 6.58923 29.8223 6.50702C29.3025 6.31606 28.7541 6.19407 28.2 6.11981C28.1914 6.11981 28.1829 6.11715 28.1743 6.11715C24.4185 5.46473 20.6827 7.57848 18.6606 10.4189C16.707 13.1639 15.8559 16.121 16.4785 19.3725C16.5213 19.5927 16.4185 19.8022 16.2129 19.9162C16.0072 20.0303 15.7588 20.017 15.5703 19.8791C12.857 17.9006 9.69524 17.7335 6.58207 19.049C4.70846 19.842 1.28398 22.1732 0.64421 24.0509C0.392872 24.7855 0.601368 25.5281 1.20401 26.0586C3.29183 27.8885 5.93373 29.212 8.8841 28.7531C9.10402 28.7187 9.30966 28.7982 9.43818 28.9653C9.56671 29.135 9.58385 29.3419 9.47531 29.5223C7.79592 32.4184 7.05333 36.4178 8.44426 39.5341C9.47246 41.8335 11.2775 43.6422 13.8252 44.5015C19.8373 46.5251 26.4521 42.5708 29.1511 37.6351C29.7994 36.4496 30.2878 35.1952 30.5934 33.8956C30.6363 33.7073 30.7762 33.5668 30.9733 33.5084C31.1704 33.4474 31.3703 33.4872 31.5245 33.6145C32.8012 34.67 34.2949 35.4445 35.9372 35.8821C40.9183 37.2081 46.065 35.7839 49.2581 31.9543C49.4038 31.7819 49.5409 31.6068 49.6751 31.4291C49.7779 31.2859 49.9379 31.2064 50.1235 31.2011C50.3092 31.1957 50.472 31.2674 50.5862 31.4026C50.6034 31.4212 50.6205 31.4424 50.6376 31.461C52.2371 33.3148 54.6276 34.0229 57.1153 34.0574C57.4323 34.0627 57.7465 34.0017 58.035 33.8771C58.1435 33.8293 58.2492 33.8161 58.3691 33.8346C58.8918 33.9168 59.423 33.9195 59.9457 33.8426C60.6197 33.7444 61.2767 33.5668 61.905 33.2777C62.5562 32.9992 63.1531 32.6332 63.6758 32.1611C63.99 31.8906 64.2841 31.6015 64.5612 31.2992C64.6669 31.1878 64.7982 31.1241 64.9582 31.1162C65.1153 31.1056 65.2552 31.1507 65.3723 31.2488C67.583 33.0894 71.2416 32.9356 73.7379 31.7023C75.0917 31.034 76.3027 30.2489 77.3994 29.257C77.6022 29.074 77.9078 29.0555 78.1334 29.2093C79.8128 30.363 82.3805 30.7688 84.3598 30.1455C85.3965 29.8193 85.9935 28.8062 85.7221 27.8196C85.4337 26.7614 86.0135 24.2525 86.3962 23.1916C86.4047 23.1651 86.4162 23.1412 86.4247 23.1147C86.4761 22.9741 86.5761 22.868 86.7218 22.807C86.8674 22.7434 87.016 22.7381 87.1673 22.7911C87.7928 23.0166 88.4754 23.0829 89.1409 23.0431C89.4436 23.0245 89.7093 23.2261 89.7435 23.5046C89.8092 24.0217 89.9178 24.5309 90.072 25.0295C90.946 27.9044 95.2159 29.0449 98.0034 28.1697C99.0402 27.8461 99.6371 26.8303 99.3658 25.8437C99.0773 24.7855 99.6571 22.2766 100.04 21.2158C100.048 21.1892 100.06 21.1627 100.068 21.1388C100.12 20.9956 100.22 20.8922 100.365 20.8312C100.511 20.7676 100.66 20.7622 100.811 20.8153Z" fill="#9AA8C7"/>
<path fill-rule="evenodd" clip-rule="evenodd" d="M100.268 20.818C100.96 21.0673 101.716 21.123 102.448 21.054C102.75 21.0248 103.022 21.2211 103.067 21.5022C103.104 21.7462 103.156 21.9902 103.222 22.2316C103.45 23.0749 103.847 23.86 104.401 24.5628C105.027 25.3558 105.875 25.9286 106.915 26.1435C107.22 26.2071 107.531 26.2389 107.843 26.2389C108.04 26.2363 108.208 26.3238 108.317 26.4776C108.425 26.6315 108.443 26.8091 108.363 26.9789C107.7 28.366 107.114 29.8379 106.835 31.3363C105.866 36.5266 110.276 39.9505 115.449 37.3779C116.283 36.9615 116.705 36.1235 116.511 35.2615C116.443 34.9592 116.303 34.6727 116.094 34.4287C116.003 34.3227 115.963 34.2007 115.971 34.0627C116.091 32.5908 116.745 30.6494 117.214 29.2332C117.756 27.6021 118.353 25.9154 119.024 24.3267C120.735 20.2955 123.309 14.4635 123.457 10.1617C123.589 6.24449 119.29 4.78051 115.931 6.5044C115.277 6.83857 114.866 7.46182 114.846 8.15403C114.837 8.37946 114.686 8.57041 114.455 8.63937C114.223 8.71097 113.981 8.64202 113.832 8.46433C113.598 8.1885 113.329 7.94186 113.029 7.72703C111.379 6.54683 109.211 6.66087 107.446 7.56525C107.086 7.7509 106.792 8.01877 106.597 8.35559C106.46 8.59693 106.146 8.70037 105.875 8.59163C105.224 8.33437 104.493 8.31315 103.804 8.4272C102.439 8.65528 101.239 9.17245 100.163 9.98135C99.9199 10.1617 99.5657 10.1299 99.3687 9.90709C99.1373 9.64983 98.8717 9.4244 98.5747 9.23345C96.8382 8.11955 94.736 8.64467 93.0938 9.63657C92.8424 9.79039 92.6254 9.98135 92.4626 10.2174C92.3283 10.4136 92.0799 10.5038 91.8371 10.4428C91.2916 10.3076 90.7146 10.3102 90.1606 10.403C88.7953 10.6285 87.5958 11.1483 86.519 11.9572C86.2762 12.1375 85.9221 12.1057 85.725 11.8829C85.4937 11.6257 85.2252 11.4002 84.9282 11.2093C83.1945 10.0954 81.0924 10.6205 79.4501 11.6124C78.9417 11.9201 78.6333 12.3524 78.5276 12.9067C78.4933 13.0976 78.3591 13.2435 78.1649 13.3098C77.9678 13.3761 77.7679 13.3443 77.6079 13.2196C76.4798 12.3444 74.8975 12.0818 73.4751 12.3311C73.3209 12.3577 73.1667 12.3895 73.0153 12.4266C72.8125 12.477 72.6097 12.424 72.4612 12.2808C72.3156 12.1402 72.267 11.9492 72.3298 11.7609C72.684 10.6974 72.7782 9.59679 72.5412 8.4988C71.7015 4.61077 67.9486 3.88939 64.3156 4.93964C60.457 6.05619 57.0953 8.9311 54.6391 11.8405C54.4848 12.0288 54.2249 12.0924 53.9879 12.0076C53.7508 11.9201 53.608 11.7079 53.6309 11.4718C53.8451 9.04515 52.8568 6.86244 51.1889 5.02451C49.7437 3.43057 45.9965 0.682961 43.6859 0.608701C42.8576 0.582179 42.1436 0.969392 41.758 1.65099C40.1814 4.43308 39.4617 7.5573 41.1468 10.4455C41.241 10.6073 41.241 10.7849 41.1468 10.9467C41.0525 11.1085 40.8897 11.2066 40.6927 11.2199C40.3728 11.2438 40.0586 11.3154 39.7616 11.4268C39.2732 11.6071 38.8819 11.928 38.6534 12.3709C38.5848 12.5035 38.4763 12.5964 38.3249 12.6441C37.9165 12.7714 37.3282 12.851 36.8969 12.835C36.6884 12.8271 36.517 12.7237 36.4199 12.5539C36.3228 12.3842 36.3285 12.1932 36.437 12.0314C36.7684 11.5355 37.0625 11.021 37.3253 10.4932C38.3392 8.46698 38.5306 5.05898 36.3628 3.59235C35.3746 2.92402 34.1664 2.83915 33.0183 3.15475C32.2357 3.36957 31.6645 3.96365 31.5388 4.71421C31.5245 4.80968 31.4845 4.88925 31.4189 4.96351C31.1275 5.30033 30.7619 5.59206 30.4306 5.89176C30.2507 6.05354 30.0736 6.21797 29.8994 6.38505C29.7366 6.54418 29.4995 6.59192 29.2796 6.5097C28.7598 6.31875 28.2114 6.19675 27.6573 6.12249C27.6516 6.12249 27.6431 6.12249 27.6345 6.11984C23.8787 5.47007 20.1429 7.58116 18.1179 10.4216C16.1672 13.1666 15.3161 16.1237 15.9387 19.3752C15.9816 19.5953 15.8759 19.8049 15.6731 19.9189C15.4675 20.0356 15.219 20.0197 15.0305 19.8818C12.3172 17.9059 9.15544 17.7362 6.03942 19.0517C4.16866 19.8446 0.744184 22.1759 0.104415 24.0536C-0.146923 24.7882 0.0615728 25.5308 0.664213 26.0612C2.75203 27.8912 5.39394 29.2146 8.3443 28.7558C8.56137 28.7213 8.76987 28.8009 8.89839 28.9706C9.02692 29.1377 9.0412 29.3446 8.93552 29.5249C7.25612 32.4211 6.51354 36.4205 7.90446 39.5367C8.92981 41.8362 10.7377 43.6476 13.2854 44.5042C19.2975 46.5278 25.9123 42.5734 28.6113 37.6378C29.2596 36.4523 29.748 35.1979 30.0536 33.901C30.0965 33.7127 30.2336 33.5694 30.4306 33.5111C30.6277 33.4501 30.8276 33.4899 30.9847 33.6172C32.2614 34.6727 33.7523 35.4472 35.3974 35.8848C40.3785 37.2108 45.5223 35.7866 48.7183 31.9569C48.8611 31.7846 49.0011 31.6095 49.1325 31.4318C49.2381 31.2886 49.3952 31.209 49.5809 31.2037C49.7694 31.1984 49.9293 31.27 50.0464 31.4053C50.0607 31.4265 50.0778 31.4451 50.0978 31.4636C51.6973 33.3201 54.0878 34.0256 56.5726 34.0601C56.8897 34.0654 57.2067 34.0044 57.4952 33.8797C57.6037 33.832 57.7094 33.8187 57.8265 33.8373C58.352 33.9195 58.8832 33.9222 59.4059 33.8453C60.0771 33.7471 60.7369 33.5694 61.3624 33.2804C62.0135 33.0019 62.6133 32.6359 63.136 32.1638C63.4473 31.8933 63.7444 31.6042 64.0214 31.3019C64.1242 31.1905 64.2585 31.1268 64.4155 31.1189C64.5755 31.1083 64.7154 31.1533 64.8325 31.2515C67.0403 33.0921 70.7018 32.9409 73.1981 31.705C74.549 31.0367 75.76 30.2516 76.8596 29.2597C77.0596 29.0767 77.368 29.0582 77.5937 29.212C79.2702 30.3657 81.8407 30.7714 83.82 30.1482C84.8568 29.8246 85.4508 28.8089 85.1823 27.8223C84.8939 26.7641 85.4737 24.2551 85.8564 23.1943C85.865 23.1704 85.8764 23.1439 85.8849 23.1174C85.9364 22.9768 86.0363 22.8707 86.182 22.8097C86.3276 22.7461 86.4762 22.7408 86.6275 22.7965C87.253 23.0192 87.9356 23.0882 88.6011 23.0458C88.9039 23.0272 89.1666 23.2288 89.2038 23.5099C89.2694 24.0244 89.378 24.5336 89.5294 25.0349C90.4062 27.9071 94.6761 29.0502 97.4636 28.175C98.5004 27.8488 99.0973 26.833 98.826 25.8464C98.5375 24.7882 99.1173 22.2793 99.5 21.2184C99.5086 21.1919 99.52 21.1681 99.5286 21.1415C99.58 21.001 99.68 20.8949 99.8256 20.8339C99.9713 20.7702 100.12 20.7649 100.268 20.818Z" fill="#F5F5FA"/>
<path fill-rule="evenodd" clip-rule="evenodd" d="M51.3946 35.9778C52.18 37.2137 53.3111 38.4071 54.802 38.9057C60.7398 40.8842 70.6134 38.2268 76.4342 36.5586C81.7408 35.0416 87.0304 33.2143 92.3884 31.8935C95.2959 31.1774 100.854 29.8408 103.259 32.1985C104.838 33.7473 104.464 36.113 103.867 37.9695C103.716 38.4443 103.31 38.7758 102.782 38.858C102.256 38.9376 101.756 38.7466 101.448 38.3408C101.28 38.1207 101.082 37.9218 100.86 37.7468C98.6976 36.0494 94.1021 36.792 91.6059 37.2932C86.5591 38.3064 81.4267 40.0833 76.5541 41.6746C71.6388 43.2791 66.4492 45.0189 61.3368 45.9578C57.6724 46.6314 52.7341 47.1168 49.6153 44.7643C49.1183 44.3904 48.6842 43.9528 48.3157 43.4648C46.5278 41.0938 46.4278 36.7602 49.6781 35.458C50.3122 35.2034 51.0433 35.4235 51.3946 35.9778Z" fill="#9AA8C7"/>
<path fill-rule="evenodd" clip-rule="evenodd" d="M51.0799 35.4469C51.8653 36.6854 52.9935 37.8789 54.4873 38.3748C60.4251 40.3533 70.2958 37.6959 76.1195 36.0303C81.4261 34.5133 86.7156 32.6833 92.0709 31.3626C94.9812 30.6465 100.539 29.3125 102.944 31.6702C104.524 33.2164 104.147 35.5848 103.552 37.4386C103.401 37.916 102.995 38.2475 102.467 38.3297C101.939 38.4093 101.442 38.2184 101.13 37.8126C100.962 37.5924 100.768 37.3935 100.545 37.2185C98.3829 35.5185 93.7874 36.2611 91.2883 36.7623C86.2444 37.7754 81.1119 39.555 76.2394 41.1463C71.324 42.7509 66.1316 44.4907 61.0192 45.4295C57.3577 46.1005 52.4194 46.5885 49.3006 44.236C48.8036 43.8594 48.3695 43.4245 48.001 42.9365C46.2131 40.5655 46.1131 36.2293 49.3605 34.9271C49.9974 34.6724 50.7258 34.8952 51.0799 35.4469Z" fill="#F5F5FA"/>
<path fill-rule="evenodd" clip-rule="evenodd" d="M43.7874 10.5913C43.7903 10.5966 43.7931 10.5993 43.796 10.6046C43.8303 10.6417 43.8645 10.6788 43.8988 10.716L44.4072 11.2623C45.9267 12.8907 48.1287 13.9091 49.2483 14.8718C49.2654 14.8984 49.2826 14.9249 49.2997 14.9514C49.3169 14.9832 49.334 15.0151 49.3511 15.0495C49.4739 15.3068 49.4911 15.572 49.3597 15.8531L49.8709 16.3968C53.3583 12.4107 52.1758 9.05571 49.9909 6.71388L49.4797 6.16754C49.3883 6.06676 49.2912 5.97128 49.1969 5.87315L49.1855 5.8652C47.0919 3.78327 44.273 2.5792 43.6161 2.55798C41.454 6.37441 42.2108 8.83293 43.7874 10.5913ZM14.6922 22.2421C14.6265 22.1758 14.558 22.1042 14.4894 22.0406C14.358 21.9159 14.2238 21.8019 14.0896 21.6905C14.0524 21.6587 14.0153 21.6242 13.9753 21.595C8.68864 17.3861 2.44232 23.6557 2.10815 24.6423L2.61654 25.1887C9.91106 31.5803 13.9039 22.1864 16.1003 23.8122C15.8775 23.5205 15.6518 23.2526 15.4205 23.0059L14.9121 22.4596C14.8407 22.3827 14.7665 22.3164 14.6922 22.2421ZM15.3862 40.0008C15.3377 39.9743 15.2891 39.9451 15.2406 39.916C15.2034 39.8894 15.1692 39.8656 15.1349 39.839C13.3812 37.11 18.0367 30.2675 20.7871 30.7104C20.6786 29.6098 20.2616 28.7796 19.7047 28.1856L19.1963 27.6392C18.288 26.6659 17.0056 26.3185 16.0831 26.4458C11.2334 27.1088 7.84894 34.3146 9.84537 38.7888C10.2109 39.611 10.6765 40.3085 11.2134 40.884L11.7218 41.4277C15.749 45.7453 23.9517 43.3293 27.2505 37.301C29.4269 33.3228 29.2698 29.0528 27.3048 25.3186C25.8025 22.457 23.4976 20.3352 23.8432 16.0918C24.1345 12.5141 25.6797 11.0263 27.0392 11.1085C27.1506 11.1217 27.2791 11.1774 27.4105 11.2623C27.5133 11.4453 27.5761 11.6575 27.5733 11.8882C27.5704 11.9704 26.3309 14.7578 27.4019 16.0574C27.4076 16.0653 27.4133 16.0706 27.419 16.0786C27.4333 16.0945 27.4476 16.113 27.4619 16.129L27.9703 16.6753C28.0245 16.731 28.0845 16.784 28.1473 16.8344C29.7182 14.3096 33.2798 15.5322 35.9331 10.2173C36.5643 8.94963 36.7328 6.83853 35.8788 5.92089L35.3676 5.37455C34.9935 4.97408 34.4251 4.80169 33.6168 5.02447C33.7168 6.44071 30.0467 8.08503 30.318 9.68162L29.9724 9.31032C29.6811 8.99737 29.3383 8.73481 28.9471 8.51998C28.4958 8.28129 27.9503 8.12481 27.3076 8.04525C24.6572 7.55991 21.644 9.00798 19.8732 11.4983C15.8346 17.1739 18.5422 22.1254 21.7411 26.3556C27.3305 33.7497 20.0988 42.3427 15.4776 40.0486C15.4462 40.0326 15.4176 40.0167 15.3862 40.0008ZM31.3862 31.2382C31.3576 31.209 31.3348 31.1798 31.3091 31.1507C31.1977 31.0287 31.092 30.9014 30.9863 30.774C30.9806 30.7661 30.9749 30.7581 30.9692 30.7502C28.2873 27.4138 27.8789 22.4782 30.158 19.0781C31.4604 17.1394 33.7111 15.7338 36.2359 15.1291C36.2473 15.0018 36.2844 14.8745 36.353 14.7392C37.8239 14.962 40.4058 14.3839 40.5457 13.2355C41.077 13.0366 41.4311 13.2673 41.7596 13.62L42.2708 14.1664C42.3822 14.2884 42.4936 14.4236 42.6078 14.5615C43.3876 15.2299 45.6268 14.8029 46.5207 15.7603L47.0291 16.3067C47.1662 16.4525 47.2719 16.6302 47.3347 16.8503C47.0063 16.9405 46.695 17.3542 46.4636 17.8847C46.4893 17.9138 46.515 17.9404 46.5436 17.9669L47.052 18.5132C47.8545 19.3752 48.5543 20.4254 49.0998 21.6852C52.1016 28.5834 45.5239 36.9615 36.4872 34.556C34.6364 34.0653 33.117 33.0947 31.9517 31.8455L31.4404 31.2992C31.4233 31.278 31.4033 31.2567 31.3862 31.2382ZM69.7295 7.34243C69.7324 7.34509 69.7324 7.34509 69.7324 7.34774L70.2436 7.89408C70.5921 8.26803 70.852 8.76928 70.9948 9.42967C71.2061 10.4003 71.0462 11.4267 70.5149 12.5061C69.2068 15.1715 66.2736 16.9617 63.5546 17.9934C62.7634 18.2958 61.9266 18.5371 61.0441 18.7254C62.1008 18.675 63.0976 18.9535 63.8202 19.7253L64.3286 20.2716C64.8827 20.8657 65.2711 21.7462 65.3996 22.99C65.4196 23.181 65.4339 23.3719 65.4396 23.5655C65.5967 23.059 65.7938 22.5445 66.0251 22.0194C66.6078 20.7145 67.3104 19.5237 68.1358 18.4443C69.1183 17.1766 70.3321 15.9619 71.7117 15.0999L71.7545 15.0761C72.4285 14.6729 73.1397 14.3732 73.868 14.2459C74.1279 14.2009 74.4078 14.1823 74.6906 14.1956C75.1104 14.2194 75.5217 14.3202 75.9187 14.5005L75.9273 14.5032C76.1329 14.6093 76.3186 14.7445 76.4728 14.909L76.984 15.4553C77.1268 15.6091 77.2439 15.7895 77.3239 15.999C78.4635 18.9137 74.8477 23.4966 71.8973 24.6344C71.0833 24.9473 70.4093 25.186 69.878 25.3504C69.8923 25.8835 69.9751 26.3052 70.1265 26.6182C70.5406 26.8436 71.0519 26.9046 71.6631 26.7958C72.1715 26.703 72.7284 26.5068 73.3311 26.1991C74.1622 25.7907 75.0076 25.2311 75.7645 24.6609L76.1358 24.3797C76.8355 23.8387 77.4696 23.2791 78.0408 22.6956C77.6781 21.1733 81.3682 14.1664 80.597 13.2461C82.1736 12.294 83.3846 12.3629 84.0501 13.0737L84.5613 13.62C85.1839 14.291 85.3267 15.5269 84.8412 17.0254C86.2064 14.84 87.9115 12.7581 90.5306 12.3231C91.1047 12.2277 91.4645 12.3178 91.673 12.5433L92.1843 13.0896C93.1896 14.1664 90.7277 18.3223 91.316 19.9374C91.3503 19.9533 91.3846 19.9639 91.4217 19.9772L91.4874 20.0462C92.3556 16.1396 95.0747 12.7157 94.3292 11.3975C94.3235 11.3869 94.3149 11.3763 94.3092 11.3684C94.2892 11.3339 94.2664 11.3021 94.2407 11.2702C95.8173 10.3181 97.0282 10.3871 97.6937 11.0979L98.205 11.6442C98.8276 12.3152 98.9704 13.5511 98.4849 15.0495C99.8501 12.8642 101.555 10.7823 104.177 10.3473C104.745 10.2518 105.108 10.342 105.317 10.5674L105.828 11.1138C106.833 12.1905 104.371 16.3464 104.96 17.9616C104.994 17.9748 105.028 17.9881 105.065 17.9987L105.351 18.3064C106.208 14.8321 108.775 11.2146 108.464 9.27054C109.915 8.52529 111.309 8.73746 112.083 9.56227L112.591 10.1086C113.24 10.8035 113.451 11.9359 112.885 13.3018C112.203 14.9541 110.612 18.2931 111.143 20.0223C111.197 20.0329 111.252 20.0382 111.312 20.0382C113.022 19.7889 117.826 10.1564 116.947 8.20968C118.461 7.43261 119.989 7.605 120.791 8.46164L121.299 9.00798C121.677 9.4111 121.891 9.9654 121.868 10.6443C121.751 14.1346 119.426 19.8128 117.584 24.1596C116.83 25.9366 113.908 33.5482 114.448 35.6566C114.451 35.6593 114.453 35.6593 114.456 35.6593L114.967 36.2056C112.871 37.2479 111.2 36.9747 110.232 35.9378L109.724 35.3914C109.709 35.3782 109.698 35.3622 109.684 35.349C108.93 34.5083 108.621 33.1875 108.904 31.6678C109.581 28.0397 112.745 23.4966 114.271 20.4413C112.237 23.1412 108.73 26.2469 106.759 24.1331L106.248 23.5894C106.196 23.5337 106.145 23.4727 106.096 23.4091C105.037 22.0671 104.917 20.4732 105.237 18.8262C104.348 19.3672 101.969 20.2636 100.915 19.1338L100.404 18.5875C100.159 18.3223 99.9843 17.943 99.9186 17.4232C99.6416 17.8078 99.356 18.2666 99.0675 18.8023C98.6677 19.5343 98.3192 20.3167 98.0222 21.1441C97.4767 22.6532 96.9054 25.4167 97.3024 26.8728C95.8287 27.3342 93.5438 26.9099 92.5184 25.8119L92.0072 25.2656C91.7958 25.0401 91.6388 24.7855 91.5531 24.5017C91.1903 23.3162 91.1589 22.1201 91.3217 20.9532C90.2935 21.4863 88.2314 22.1387 87.2718 21.1097L86.7605 20.5633C86.5149 20.2981 86.3378 19.9189 86.275 19.399C85.9751 19.8101 85.6866 20.2822 85.421 20.7782L85.2782 21.0513C84.9383 21.7064 84.6384 22.3933 84.3757 23.12C83.8301 24.6291 83.2589 27.3926 83.6588 28.8486C82.185 29.3127 79.8973 28.8884 78.8719 27.7877L78.3635 27.2414C78.1522 27.016 77.9951 26.7614 77.9066 26.4776C77.9008 26.4511 77.8837 26.3768 77.8609 26.276C77.2268 27.0823 76.6156 27.7639 75.953 28.3712C74.9705 29.2305 73.8937 29.9519 72.7256 30.5301H72.7227C71.7573 31.0074 70.5863 31.2647 69.4753 31.2355C69.2154 31.2223 68.9526 31.1931 68.687 31.148C68.1843 31.0684 67.7445 30.9332 67.3675 30.7449C67.0305 30.5725 66.7306 30.355 66.4792 30.0871L65.9709 29.5408C65.8024 29.3605 65.6567 29.1589 65.5367 28.9308L65.5282 28.9122C65.2083 28.2996 65.0369 27.6233 64.9798 26.9178C64.7913 27.5331 64.5428 28.1325 64.2401 28.7186C63.726 29.7079 63.0433 30.5698 62.1922 31.3045C61.8523 31.6148 61.4411 31.8694 60.9584 32.0709C60.5642 32.2592 60.1101 32.3892 59.5932 32.4635C59.0791 32.5404 58.5621 32.4847 58.0509 32.2964C57.5825 32.1266 57.2169 31.8773 56.937 31.5776L56.4257 31.0313C56.38 30.9809 56.3372 30.9305 56.2972 30.8775C56.2972 30.8775 56.2943 30.8775 56.2943 30.8748C54.6864 28.8459 56.6228 24.889 59.1962 26.0002L59.7045 26.5465C59.0191 26.589 58.3793 28.7372 58.6049 29.7742C58.9077 29.753 59.2276 29.318 59.5675 28.4481C59.9273 27.5252 60.1101 26.4696 60.4186 25.3504C60.7385 24.1914 60.7042 23.3746 60.45 22.8574C58.7877 21.9451 54.812 24.9659 55.249 29.6257C55.3261 30.4531 55.5375 31.2514 55.9173 31.8243C56.1201 31.9702 56.3486 32.0683 56.6085 32.1107L57.1169 32.6571C54.9006 32.6252 53.3554 31.9834 52.3643 30.9252L51.8559 30.3789C51.8074 30.3258 51.7588 30.2701 51.7131 30.2144C51.7046 30.2038 51.696 30.1959 51.6874 30.1853C49.5653 27.6366 50.3536 22.9317 52.7185 18.3753C52.5271 18.256 52.3586 18.1207 52.2187 17.9695L51.7074 17.4232C51.3533 17.0413 51.1591 16.556 51.1905 15.9433C52.1216 16.2297 52.9841 16.4154 53.7667 16.5268C56.5428 12.0394 60.7185 8.02138 64.9398 6.8014C66.7649 6.27363 68.6585 6.20202 69.7295 7.34243ZM58.9905 16.3756C60.093 14.4183 62.6692 10.3473 64.3429 10.9467C64.3971 10.9653 64.4457 10.9865 64.4914 11.005C65.0541 13.6094 61.6239 15.6861 58.9905 16.3756ZM59.6274 18.9694C58.9705 19.0596 58.2936 19.1206 57.591 19.1524C57.4996 19.3725 57.3625 19.7518 57.2112 20.1549C57.9109 19.6457 58.7563 19.2213 59.6274 18.9694ZM72.8912 18.3753C72.9655 18.0995 72.9855 17.8635 72.9512 17.6698C72.8798 17.6805 72.797 17.707 72.7056 17.7574C72.4114 17.9032 72.0344 18.2666 71.5717 18.9508L71.566 18.9588C70.5464 20.4705 70.1122 21.7382 69.9123 22.6797C71.3147 21.5393 72.42 20.1072 72.8912 18.3753Z" fill="#9AA8C7"/>
<path fill-rule="evenodd" clip-rule="evenodd" d="M102.564 37.5347C107.579 21.8925 70.0555 45.2604 54.3469 40.0277C52.6332 39.4549 51.248 38.1659 50.2227 36.5481C48.2205 37.3517 47.8064 40.4998 49.4401 42.6666C57.1059 52.8349 95.3607 28.1223 102.564 37.5347Z" fill="#9AA8C7"/>
<path d="M49.358 15.8531C56.2184 8.00812 45.0139 2.60307 43.6144 2.55798C38.302 11.9306 50.6062 13.1214 49.358 15.8531Z" fill="#6A942B"/>
<path fill-rule="evenodd" clip-rule="evenodd" d="M49.2588 13.1056C49.016 9.73477 46.3741 7.42211 44.0835 4.75671C47.3937 7.69263 49.4787 8.81713 49.2588 13.1056Z" fill="#608129"/>
<path d="M15.5916 23.2666C10.0565 16.0183 2.47921 23.553 2.10791 24.643C9.39957 31.0347 13.3953 21.6408 15.5916 23.2666Z" fill="#6A942B"/>
<path fill-rule="evenodd" clip-rule="evenodd" d="M13.3094 22.5822C10.1619 21.8474 7.3201 23.2905 4.25549 24.3622C7.84849 22.5636 9.45077 21.2293 13.3094 22.5822Z" fill="#608129"/>
<path fill-rule="evenodd" clip-rule="evenodd" d="M64.9381 6.80201C67.3629 6.10185 69.9049 6.20263 70.4847 8.88394C70.6932 9.85462 70.5332 10.881 70.0048 11.9604C68.6967 14.6285 65.7635 16.416 63.0445 17.4477C61.2823 18.1187 59.2944 18.5032 57.0809 18.6067C56.841 19.1901 56.2669 20.861 56.0556 21.2402C58.052 18.7048 64.2955 16.668 64.8895 22.447C64.9781 23.3062 64.941 24.1815 64.7839 25.0779C64.5925 26.152 64.2412 27.1837 63.7271 28.1729C63.213 29.1622 62.5304 30.0241 61.6821 30.7587C61.3422 31.069 60.931 31.3263 60.4483 31.5252C60.0541 31.7135 59.5972 31.8435 59.0831 31.9204C58.5661 31.9946 58.052 31.9389 57.5408 31.7506C53.9992 30.4591 56.1527 24.6854 59.1945 26.0008C58.3033 26.0539 57.4922 29.6661 58.5461 29.7748C58.866 29.8066 59.2059 29.3717 59.5657 28.4487C59.9256 27.5258 60.1084 26.4729 60.4169 25.351C62.0877 19.275 54.1277 22.5902 54.7389 29.0799C54.876 30.5466 55.4329 31.923 56.6068 32.1113C49.081 32.0053 49.2666 24.8657 52.8367 18.1425C51.7914 17.7341 51.1345 17.0393 51.1888 15.9439C52.1199 16.2304 52.9824 16.416 53.765 16.5274C56.5411 12.04 60.7168 8.022 64.9381 6.80201ZM91.5514 24.5024C92.054 26.152 95.013 26.8866 96.7895 26.327C96.3925 24.871 96.9637 22.1075 97.5092 20.5984C97.8091 19.771 98.1576 18.9912 98.5546 18.2566C98.9515 17.5219 99.3371 16.9332 99.7113 16.4876C99.7541 16.4372 99.8198 16.4266 99.9141 16.4584C99.4828 21.0493 104.918 18.4263 105.064 17.9993C102.51 17.2249 107.957 9.71936 104.173 10.3479C100.26 10.995 98.3889 15.3207 96.6438 18.1744C96.9694 17.1533 97.3578 16.058 97.7663 15.0687C99.1743 11.6581 97.4749 9.31624 94.239 11.2709C95.6242 12.9205 89.8177 18.8241 91.5514 24.5024ZM116.945 8.2103C119.17 7.06988 121.429 7.97691 121.358 10.1013C121.238 13.5888 118.913 19.267 117.071 23.6139C116.202 25.6666 112.438 35.5034 114.455 35.6599C110.662 37.5482 108.26 35.1189 108.902 31.6684C109.828 26.7063 115.411 20.0335 115.083 17.7925C113.86 20.4154 108.577 26.5578 106.095 23.4097C102.702 19.1106 108.937 12.2389 108.462 9.27115C111.136 7.9 113.609 9.76445 112.375 12.7587C111.678 14.4402 110.039 17.8773 110.664 19.5773C110.779 19.8876 110.993 20.0415 111.31 20.0388C113.021 19.7895 117.825 10.157 116.945 8.2103ZM77.7592 25.2025C77.6364 25.2052 77.8677 26.3482 77.9049 26.4782C78.4104 28.1278 81.3693 28.8625 83.1458 28.3029C82.7488 26.8469 83.32 24.0833 83.8656 22.5743C84.1655 21.7468 84.5139 20.9671 84.9109 20.2324C85.3079 19.5004 85.6935 18.909 86.0676 18.4635C86.1105 18.4131 86.1762 18.4025 86.2704 18.4343C85.8391 23.0278 91.2743 20.4022 91.42 19.9778C88.8666 19.2007 94.3132 11.6952 90.5289 12.3238C86.616 12.9735 84.7452 17.2992 83.0002 20.1502C83.3258 19.1291 83.7142 18.0338 84.1226 17.0446C85.5307 13.6339 83.8313 11.2921 80.5953 13.2467C81.3665 14.167 77.6764 21.1739 78.0391 22.6963C77.4679 23.2797 76.8338 23.8393 76.1341 24.3804C75.4086 24.9453 74.6403 25.4598 73.8377 25.9239C73.0352 26.388 72.3097 26.6798 71.6614 26.7938C71.013 26.9105 70.4732 26.8362 70.0448 26.571C69.6164 26.3058 69.3908 25.717 69.3651 24.8074C69.8992 24.6429 70.5704 24.4016 71.3872 24.0886C74.3376 22.9509 77.9505 18.368 76.8138 15.4533C76.6453 15.021 76.3483 14.7027 75.9256 14.5038C75.2687 14.2068 74.5803 14.1219 73.8663 14.2466C73.1494 14.3712 72.444 14.6497 71.7528 15.0767C70.3561 15.9386 69.1252 17.1639 68.1341 18.4449C67.3087 19.5243 66.6061 20.7151 66.0234 22.02C65.4436 23.3248 65.098 24.574 64.9838 25.7674C64.8724 26.9609 65.0552 28.0138 65.5322 28.9261C66.0091 29.8358 66.8917 30.3954 68.1769 30.6023C69.5536 30.8383 70.8988 30.6341 72.2098 29.987C73.5207 29.3372 74.7174 28.5097 75.7942 27.5046C76.3169 27.0166 77.0394 26.152 77.7592 25.2025ZM64.4411 10.8041C64.3383 10.645 64.1355 10.5097 63.8328 10.401C61.8992 9.70875 58.7575 15.2544 58.0806 16.5645C60.7967 16.172 65.3237 13.8196 64.4411 10.8041ZM69.2423 23.1896C70.9559 21.9775 72.3469 20.3756 72.8895 18.3759C73.0295 17.8561 72.9781 17.4822 72.7353 17.2541C72.5839 17.0578 72.3469 17.0817 72.027 17.3257C71.7042 17.567 71.3815 17.9304 71.0559 18.4131C69.5821 20.5958 69.3308 22.2719 69.2423 23.1896Z" fill="#442E7C"/>
<path fill-rule="evenodd" clip-rule="evenodd" d="M67.3239 7.26562C70.9454 7.35049 70.1543 10.8778 68.4006 12.7688C69.583 11.0529 70.0143 7.68997 67.3239 7.26562Z" fill="#FEFEFE"/>
<path fill-rule="evenodd" clip-rule="evenodd" d="M74.5703 14.8109C77.8548 15.1345 75.927 18.7705 74.8816 20.2717C75.4871 18.9854 76.9552 15.3917 74.5703 14.8109Z" fill="#FEFEFE"/>
<path fill-rule="evenodd" clip-rule="evenodd" d="M89.3845 13.281C92.1835 11.406 91.4923 14.4957 90.387 16.4928C90.8183 15.0208 91.8065 12.244 89.3845 13.281Z" fill="#FEFEFE"/>
<path fill-rule="evenodd" clip-rule="evenodd" d="M118.469 8.4904C121.965 8.38431 120.28 12.2962 119.605 13.8265C120.011 12.1716 120.971 8.76622 118.469 8.4904Z" fill="#FEFEFE"/>
<path fill-rule="evenodd" clip-rule="evenodd" d="M111.443 27.3556C110.789 29.3102 108.375 34.8558 111.894 35.3597C107.364 35.1555 110.691 28.9177 111.443 27.3556Z" fill="#FEFEFE"/>
<path fill-rule="evenodd" clip-rule="evenodd" d="M78.6965 24.6478C78.7194 25.6718 79.1449 27.1016 80.4216 27.2847C78.6337 27.2953 78.4852 26.0034 78.6965 24.6478Z" fill="#FEFEFE"/>
<path fill-rule="evenodd" clip-rule="evenodd" d="M63.7167 22.094C63.551 21.0807 62.937 19.7119 61.646 19.68C63.4196 19.4598 63.7395 20.7225 63.7167 22.094Z" fill="#FEFEFE"/>
<path fill-rule="evenodd" clip-rule="evenodd" d="M51.5188 28.252C51.9072 29.2255 53.2467 30.7535 54.3235 31.101C52.5756 30.7827 51.8787 29.7932 51.5188 28.252Z" fill="#FEFEFE"/>
<path fill-rule="evenodd" clip-rule="evenodd" d="M65.9131 26.9313C66.2444 28.1462 67.4754 29.7167 68.9291 29.9156C66.9784 29.8811 66.1302 28.6105 65.9131 26.9313Z" fill="#FEFEFE"/>
<path fill-rule="evenodd" clip-rule="evenodd" d="M92.1346 22.4518C92.1574 23.4757 92.583 24.9056 93.8625 25.0886C92.0718 25.0992 91.9232 23.8073 92.1346 22.4518Z" fill="#FEFEFE"/>
<path fill-rule="evenodd" clip-rule="evenodd" d="M106.205 20.476C106.231 21.4999 106.657 22.9297 107.933 23.1128C106.143 23.1234 105.997 21.8315 106.205 20.476Z" fill="#FEFEFE"/>
<path fill-rule="evenodd" clip-rule="evenodd" d="M102.986 11.398C105.785 9.52031 105.094 12.61 103.988 14.6071C104.419 13.1378 105.408 10.361 102.986 11.398Z" fill="#FEFEFE"/>
<path d="M21.7385 26.3561C27.3279 33.7503 20.0962 42.3432 15.475 40.0491C11.7849 38.2165 17.2115 29.674 20.2761 30.1646C19.9848 27.2685 17.5685 26.2421 16.0805 26.4463C11.2308 27.1093 7.84632 34.3152 9.84275 38.7893C12.9645 45.7804 23.0009 43.5897 26.7395 36.7578C28.9159 32.777 28.7559 28.507 26.7938 24.7728C25.2915 21.9085 22.9837 19.7894 23.3293 15.546C23.6206 11.9683 25.1687 10.4804 26.5282 10.5627C26.9252 10.6184 27.5849 11.1753 27.5706 11.8887C27.5678 11.9763 26.1597 15.1296 27.6335 16.2886C29.2043 13.7638 32.7688 14.9838 35.4192 9.6742C36.3303 7.85218 36.2789 4.29036 33.6142 5.02501C33.7141 6.46512 29.9241 8.13596 30.3297 9.75642C29.9726 9.2419 29.5128 8.83082 28.9444 8.52052C28.4932 8.28183 27.9477 8.12535 27.305 8.04579V8.04844C24.6546 7.56045 21.6414 9.00851 19.8706 11.4989C15.832 17.1744 18.5396 22.126 21.7385 26.3561Z" fill="#442E7C"/>
<path d="M25.0683 8.94983C22.0722 9.7216 19.4674 14.0658 19.2618 16.6702C19.1647 13.4107 21.1697 9.5996 25.0683 8.94983Z" fill="#FEFEFE"/>
<path fill-rule="evenodd" clip-rule="evenodd" d="M17.9982 28.104C14.5937 27.5179 12.6116 29.9791 11.829 32.8752C11.592 33.7531 11.6319 33.7664 11.6262 34.5381C11.2635 30.5626 13.2314 26.8522 17.9982 28.104Z" fill="#FEFEFE"/>
<path fill-rule="evenodd" clip-rule="evenodd" d="M34.4442 6.2074C35.1925 9.23614 34.4242 10.8672 31.4338 12.2994C33.3046 11.029 34.6013 8.35828 34.4442 6.2074Z" fill="#FEFEFE"/>
<path fill-rule="evenodd" clip-rule="evenodd" d="M102.244 37.0785C107.259 21.4362 69.7328 44.8042 54.027 39.5688C52.3105 38.9986 50.9281 37.7097 49.9028 36.0919C47.9007 36.8955 47.4865 40.0436 49.1174 42.2104C56.7832 52.3787 95.0408 27.6661 102.244 37.0785Z" fill="#442E7C"/>
<path fill-rule="evenodd" clip-rule="evenodd" d="M49.8785 37.6008C49.3273 40.6985 51.9492 42.4489 55.0081 43.104C55.9364 43.3056 55.9506 43.2684 56.7618 43.2605C52.589 43.661 48.6504 41.945 49.8785 37.6008Z" fill="#FEFEFE"/>
<path fill-rule="evenodd" clip-rule="evenodd" d="M101.941 35.6851C101.656 33.1762 99.2164 32.3408 96.6945 32.4389C95.9291 32.4708 95.9262 32.4999 95.2979 32.667C98.4424 31.5266 101.893 32.0729 101.941 35.6851Z" fill="#FEFEFE"/>
<path d="M18.0479 27.9343C14.1836 27.274 11.4446 30.8888 10.959 33.83C10.9048 34.1642 10.9162 34.1165 10.959 34.3923C10.8905 34.1191 10.8819 34.1722 10.9048 33.83C11.1447 30.0057 13.8437 26.8178 18.0479 27.9343Z" fill="#442E7C"/>
<path d="M48.5892 21.1386C44.7849 12.3999 33.786 13.6702 30.1559 19.0779C26.8428 24.0189 29.2048 32.2086 35.9766 34.0094C45.0134 36.4149 51.591 28.0395 48.5892 21.1386Z" fill="#442E7C"/>
<path fill-rule="evenodd" clip-rule="evenodd" d="M43.4154 15.9718C46.8027 17.6082 49.496 21.8171 46.6342 25.0315C45.9544 25.7927 44.7663 26.3417 43.5839 26.408C42.4014 26.4769 41.2276 26.0632 40.0423 25.9014C38.857 25.7423 37.6631 25.8378 36.5378 25.6309C35.4154 25.4214 34.3586 24.9148 33.7017 23.8142C33.0448 22.7135 32.7792 21.0215 32.9334 19.6715C33.0848 18.3243 33.656 17.3191 34.4443 16.7277C35.2354 16.1336 36.2465 15.9532 37.1062 15.7888C38.7056 15.4812 42.0216 15.2982 43.4154 15.9718Z" fill="#6F58A1"/>
<path fill-rule="evenodd" clip-rule="evenodd" d="M44.4324 22.0033C44.5638 21.754 44.7551 21.4913 45.015 21.433C45.2721 21.3773 45.5977 21.5285 45.7948 21.754C45.9918 21.9794 46.0632 22.2792 46.0889 22.6188C46.1146 22.9583 46.0946 23.335 45.8804 23.6162C45.6691 23.9 45.2635 24.0857 44.9094 24.2051C44.5552 24.3218 44.2496 24.3696 44.0268 24.2422C43.804 24.1149 43.6612 23.8151 43.6984 23.5313C43.7326 23.2501 43.9468 22.9848 44.0868 22.7355C44.2296 22.4888 44.301 22.2527 44.4324 22.0033Z" fill="#FEFEFE"/>
<path fill-rule="evenodd" clip-rule="evenodd" d="M40.5446 13.2349C41.5071 12.8743 41.8812 13.9219 42.5953 14.5531C43.4835 15.3354 46.3454 14.6406 46.8252 16.3035C45.8684 16.5634 45.0687 19.547 45.9626 20.218C44.4346 22.0029 39.7477 18.6506 39.1165 21.141C37.1515 20.3798 38.8423 18.4888 37.6628 17.184C37.0687 16.5262 35.832 15.7359 36.3518 14.7387C37.8227 14.9615 40.4046 14.3833 40.5446 13.2349Z" fill="#442E7C"/>
<path fill-rule="evenodd" clip-rule="evenodd" d="M38.4383 15.9561C38.0555 16.8685 38.9352 18.1468 39.7464 18.6507C40.8717 19.3482 44.0077 19.8945 44.8702 18.7011C46.284 16.7491 42.5768 14.7865 40.6318 14.7202C39.515 14.6804 38.8467 14.9801 38.4383 15.9561Z" fill="#342960"/>
<path fill-rule="evenodd" clip-rule="evenodd" d="M40.3281 18.1934C41.1278 18.6894 42.9186 18.9786 43.5327 18.1297C44.538 16.7397 42.3417 15.4451 40.9593 15.3974C38.9601 15.3284 38.9144 17.3127 40.3281 18.1934Z" fill="#6F58A1"/>
<path fill-rule="evenodd" clip-rule="evenodd" d="M41.1615 17.4151C41.4243 17.5796 42.0183 17.6751 42.2211 17.3939C42.5553 16.9349 41.827 16.5052 41.37 16.4893C40.7074 16.4654 40.6902 17.1233 41.1615 17.4151Z" fill="#342960"/>
</svg>
